<?xml version="1.0" encoding="UTF-8"?>
<svg width="200" height="80" viewBox="0 0 125 40" version="1.1" xmlns="http://www.w3.org/2000/svg" xmlns:xlink="http://www.w3.org/1999/xlink">
    <title>logo_juno_onlight</title>
    <g id="logo_juno_onlight" stroke="none" stroke-width="1" fill="none" fill-rule="evenodd">
        <g id="logo-juno-download" transform="translate(0.000000, 10.027962)" fill="#fff" fill-rule="nonzero">
            <path d="M124.17709,15.3559663 L125,15.3559663 L125,0.97203774 L124.17709,0.97203774 L124.17709,7.32025203 L124.17709,7.32025203 C123.601053,5.71310917 122.037525,4.74882345 120.227123,4.74882345 C117.017775,4.74882345 115.536537,7.15953774 115.536537,10.132752 C115.536537,13.0256092 116.935484,15.5166806 120.144832,15.5166806 C122.037525,15.5166806 123.35418,14.7131092 124.17709,13.1059663 L124.17709,13.1059663 L124.17709,15.3559663 Z M120.227123,14.8738235 C117.511521,14.8738235 116.277156,12.5434663 116.277156,10.132752 C116.277156,7.6416806 117.42923,5.3916806 120.227123,5.3916806 C122.942725,5.3916806 124.17709,7.72203774 124.17709,10.132752 C124.17709,12.5434663 122.942725,14.8738235 120.227123,14.8738235 M113.314681,7.48096631 C113.314681,5.31132345 111.504279,4.74882345 109.611587,4.74882345 C107.142857,4.74882345 105.661619,5.87382345 105.579329,8.2041806 L106.402238,8.2041806 C106.484529,6.43632345 107.718894,5.47203774 109.611587,5.47203774 C111.998025,5.47203774 112.574062,6.99882345 112.574062,7.48096631 C112.574062,9.16846631 112.40948,9.40953774 108.953259,9.65060917 C107.225148,9.81132345 105.085583,10.2934663 105.085583,12.7041806 C105.085583,14.8738235 106.649111,15.5970377 108.624095,15.5970377 C110.599078,15.5970377 112.080316,14.5523949 112.574062,13.3470377 L112.574062,13.3470377 L112.574062,13.8291806 C112.574062,14.632752 112.738644,15.3559663 113.973009,15.3559663 C114.219882,15.3559663 114.384463,15.3559663 114.631336,15.2756092 L114.631336,14.632752 C114.384463,14.632752 114.219882,14.7131092 114.0553,14.7131092 C113.396972,14.7131092 113.396972,14.070252 113.396972,13.4273949 L113.396972,7.48096631 L113.314681,7.48096631 Z M112.574062,11.4184663 C112.574062,11.9809663 112.162607,14.9541806 108.624095,14.9541806 C106.731402,14.9541806 105.826201,13.9898949 105.826201,12.7041806 C105.826201,11.1773949 106.895984,10.5345377 108.706386,10.2934663 C110.187623,10.0523949 111.915734,10.2131092 112.574062,9.48989488 L112.574062,11.4184663 L112.574062,11.4184663 Z M94.5523371,10.132752 C94.5523371,7.6416806 95.9512837,5.3916806 98.5845951,5.3916806 C101.217907,5.3916806 102.616853,7.6416806 102.616853,10.132752 C102.616853,12.6238235 101.217907,14.8738235 98.5845951,14.8738235 C95.9512837,14.8738235 94.5523371,12.6238235 94.5523371,10.132752 M93.8117182,10.132752 C93.8117182,13.1059663 95.5398288,15.5166806 98.6668861,15.5166806 C101.793943,15.5166806 103.522054,13.0256092 103.522054,10.132752 C103.522054,7.23989488 101.793943,4.74882345 98.6668861,4.74882345 C95.5398288,4.74882345 93.8117182,7.23989488 93.8117182,10.132752 M90.7669519,15.3559663 L91.5075708,15.3559663 L91.5075708,0.97203774 L90.7669519,0.97203774 L90.7669519,15.3559663 Z M79.7399605,15.3559663 L80.4805793,15.3559663 L80.4805793,9.73096631 C80.4805793,7.23989488 81.961817,5.3916806 84.2659645,5.3916806 C87.1461488,5.3916806 87.3107307,7.72203774 87.3107307,8.7666806 L87.3107307,15.2756092 L88.0513496,15.2756092 L88.0513496,8.92739488 C88.0513496,7.6416806 88.0513496,4.74882345 84.2659645,4.74882345 C82.6201448,4.74882345 81.0566162,5.63275203 80.4805793,7.23989488 L80.3982883,7.23989488 L80.3982883,4.98989488 L79.6576695,4.98989488 L79.6576695,15.3559663 L79.7399605,15.3559663 Z M64.680711,4.98989488 L63.8578012,4.98989488 L67.2317314,15.2756092 L68.2192232,15.2756092 L71.1816985,5.9541806 L71.1816985,5.9541806 L74.0618828,15.2756092 L75.0493746,15.2756092 L78.4233048,4.98989488 L77.600395,4.98989488 L74.6379197,14.4720377 L74.6379197,14.4720377 L71.6754444,4.98989488 L70.6056616,4.98989488 L67.7254773,14.4720377 L67.7254773,14.4720377 L64.680711,4.98989488 Z M54.0651745,10.132752 C54.0651745,7.6416806 55.4641211,5.3916806 58.0974325,5.3916806 C60.7307439,5.3916806 62.2119816,7.6416806 62.2119816,10.132752 C62.2119816,12.6238235 60.8130349,14.8738235 58.0974325,14.8738235 C55.4641211,14.8738235 54.0651745,12.6238235 54.0651745,10.132752 M53.3245556,10.132752 C53.3245556,13.1059663 55.0526662,15.5166806 58.1797235,15.5166806 C61.3067808,15.5166806 63.0348914,13.0256092 63.0348914,10.132752 C63.0348914,7.23989488 61.3067808,4.74882345 58.1797235,4.74882345 C55.0526662,4.74882345 53.3245556,7.23989488 53.3245556,10.132752 M50.2797893,15.3559663 L51.1026991,15.3559663 L51.1026991,0.97203774 L50.2797893,0.97203774 L50.2797893,7.32025203 L50.2797893,7.32025203 C49.7037525,5.71310917 48.1402238,4.74882345 46.3298223,4.74882345 C43.120474,4.74882345 41.6392363,7.15953774 41.6392363,10.132752 C41.6392363,13.0256092 43.038183,15.5166806 46.2475313,15.5166806 C48.1402238,15.5166806 49.4568795,14.7131092 50.2797893,13.1059663 L50.2797893,13.1059663 L50.2797893,15.3559663 Z M46.4121132,14.8738235 C43.6965109,14.8738235 42.4621461,12.5434663 42.4621461,10.132752 C42.4621461,7.6416806 43.6142199,5.3916806 46.4121132,5.3916806 C49.1277156,5.3916806 50.3620803,7.72203774 50.3620803,10.132752 C50.2797893,12.5434663 49.0454246,14.8738235 46.4121132,14.8738235 M32.0934826,10.132752 C32.0934826,8.44525203 32.6695194,6.83810917 34.644503,6.83810917 C36.6194865,6.83810917 37.1955234,8.52560917 37.1955234,10.132752 C37.1955234,11.820252 36.6194865,13.4273949 34.644503,13.4273949 C32.7518104,13.4273949 32.0934826,11.820252 32.0934826,10.132752 M29.2132982,10.132752 C29.2132982,13.4273949 31.3528637,15.5970377 34.7267939,15.5970377 C38.1007242,15.5970377 40.2402897,13.4273949 40.2402897,10.132752 C40.2402897,6.83810917 38.1007242,4.66846631 34.7267939,4.66846631 C31.3528637,4.66846631 29.2132982,6.83810917 29.2132982,10.132752 M18.1863068,15.3559663 L21.0664911,15.3559663 L21.0664911,9.8916806 C21.0664911,7.80239488 21.724819,6.91846631 23.3706386,6.91846631 C24.7695853,6.91846631 25.2633311,7.80239488 25.2633311,9.48989488 L25.2633311,15.3559663 L28.1435155,15.3559663 L28.1435155,8.92739488 C28.1435155,6.35596631 27.4028966,4.66846631 24.2758394,4.66846631 C23.0414747,4.66846631 21.724819,5.23096631 21.0664911,6.35596631 L20.9842001,6.35596631 L20.9842001,4.90953774 L18.1863068,4.90953774 L18.1863068,15.3559663 Z M16.4581962,4.90953774 L13.4957209,4.90953774 L13.4957209,10.3738235 C13.4957209,12.4631092 12.837393,13.3470377 11.2738644,13.3470377 C9.87491771,13.3470377 9.38117182,12.4631092 9.38117182,10.7756092 L9.38117182,4.90953774 L6.50098749,4.90953774 L6.50098749,11.257752 C6.50098749,13.8291806 7.24160632,15.5166806 10.3686636,15.5166806 C11.6030283,15.5166806 12.837393,14.9541806 13.5780118,13.8291806 L13.6603028,13.8291806 L13.6603028,15.2756092 L16.4581962,15.2756092 L16.4581962,4.90953774 Z M4.77287689,0.97203774 L1.81040158,0.97203774 L1.81040158,3.30239488 L4.69058591,3.30239488 L4.69058591,0.97203774 L4.77287689,0.97203774 Z M0.0822909809,18.8916806 C0.411454905,18.8916806 0.740618828,18.9720377 0.987491771,18.9720377 C3.94996708,18.9720377 4.69058591,18.007752 4.69058591,15.8381092 L4.69058591,4.90953774 L1.81040158,4.90953774 L1.81040158,15.6773949 C1.81040158,16.4809663 1.31665569,16.5613235 0.658327847,16.5613235 C0.411454905,16.5613235 0.246872943,16.5613235 0,16.4809663 L0,18.8916806 L0.0822909809,18.8916806 Z" id="Shape"></path>
        </g>
    </g>
</svg>